<svg width="24" height="24" viewBox="0 0 24 24" fill="none" xmlns="http://www.w3.org/2000/svg">
<path d="M11.1018 19.9292H5V4.0708H11.0398C12.6711 4.0708 14.0804 4.38828 15.2677 5.02323C16.4602 5.65303 17.3791 6.56158 18.0243 7.7489C18.6748 8.93105 19 10.3481 19 12C19 13.6519 18.6774 15.0715 18.0321 16.2589C17.3868 17.441 16.4731 18.3496 15.2909 18.9845C14.1088 19.6143 12.7124 19.9292 11.1018 19.9292ZM9.30531 16.2743H10.9469C11.7316 16.2743 12.4001 16.1479 12.9524 15.8949C13.51 15.642 13.9333 15.2058 14.2223 14.5863C14.5166 13.9668 14.6637 13.1047 14.6637 12C14.6637 10.8953 14.514 10.0332 14.2146 9.41372C13.9204 8.79425 13.4867 8.35804 12.9137 8.10509C12.3459 7.85214 11.649 7.72567 10.823 7.72567H9.30531V16.2743Z" fill="black"/>
</svg>
